# xmcd
#
# Track frame offsets:
#	150
#	12760
#	27633
#	41713
#	57211
#	73211
#	88439
#	100178
#	115059
#	130313
#	144605
#	161591
#	177546
#	189924
#	204114
#	216818
#	230089
#	242511
#	256147
#	270269
#
# Disc length: 3749 seconds
#
# Revision: 0
# Processed by: cddbd v1.5.2PL0 Copyright (c) Steve Scherf et al.
# Submitted via: EasyCDDAExtractor 16.0.6.1
#
DISCID=1f0ea314
DTITLE=Συλλογικός δίσκος - Τραγούδια 45 στροφές-Διονυσίου Στράτος 5
DYEAR=2001
DGENRE=Λαϊκή
TTITLE0=Διονυσίου Στράτος - Όσα έρθουν και όσα πάνε [Π. Πετσάς]
TTITLE1=Διονυσίου Στράτος - Εγώ είμαι από τα καλά παιδιά [Αν. Δήμογλου-Ηλ. Ωρο
TTITLE1=λογάς]
TTITLE2=Διονυσίου Στράτος-Γκίκα Βούλα - Της πόλης το ρολόϊ [Βασίλης Καραπατάκη
TTITLE2=ς-Κώστας Κοφινιώτης]
TTITLE3=Διονυσίου Στράτος - Το τηλεγράφημα [Π. Πετσάς-Ν. Χάρου]
TTITLE4=Διονυσίου Στράτος - Οι μαστόροι και οι εργολάβοι [Θόδωρος Πολυκανδριώτ
TTITLE4=ης-Αλκ. Νεράντζη]
TTITLE5=Διονυσίου Στράτος - Παληοκόριτσο [Γιάννης Καραμπεσίνης]
TTITLE6=Διονυσίου Στράτος - Με φιλιά και καυγαδάκι [Μπάμπης Μπακάλης]
TTITLE7=Διονυσίου Στράτος-Κάλι Βεατρίκη - Με καϋμό και παράπονο κλαίω [Μπάμπης
TTITLE7=Μπακάλης]
TTITLE8=Διονυσίου Στράτος-Γκίκα Βούλα - Αθήνα και Θεσσαλονίκη [Βασίλης Καραπατ
TTITLE8=άκης-Κώστας Κοφινιώτης]
TTITLE9=Διονυσίου Στράτος-Μάμος Γ. - Κορδελάκια και καψόνια [Αν. Αθανασίου]
TTITLE10=Διονυσίου Στράτος-Κλειδωνιάρης Αντώνης - Παναγιώτη δεν θα ξαναβρής [Ο
TTITLE10=δυσσέας Μοσχονάς]
TTITLE11=Διονυσίου Στράτος - Είμαι της νύχτας βασιληάς [Μπάμπης Μπακάλης]
TTITLE12=Διονυσίου Στράτος - Θα κάνω μιά θυσία [Γ. Λαύκας-Σαρ. Τσιλιβέρδης]
TTITLE13=Διονυσίου Στράτος - Φεύγεις μακρυά μου [Γιάννης Καραμπεσίνης]
TTITLE14=Διονυσίου Στράτος-Γκίκα Βούλα - Θα μετανοιώσεις [Στράτος Διονυσίου-Αρ
TTITLE14=Τσολακίδης]
TTITLE15=Διονυσίου Στράτος - Άλλα σού γράφει η μοίρα [Αντώνης Κατινάρης-Ευτ. Π
TTITLE15=απαγιαννοπούλου]
TTITLE16=Διονυσίου Στράτος-Μπέλλα Άννα - Εγώ δεν γνώρισα χαρά [Π. Πετσάς-Ηρακλ
TTITLE16=ής Παπασιδέρης]
TTITLE17=Διονυσίου Στράτος-Γκίκα Βούλα - Αν ήτανε κυρία [ανέκδοτον, Άκης Πάνου
TTITLE17=]
TTITLE18=Διονυσίου Στράτος - Όλα τα επαγγέλματα έχουν τα βάσανά τους [Νίκ. Δαλ
TTITLE18=έζιος-Λ. Μπουρνέλης]
TTITLE19=Διονυσίου Στράτος - Βρήκα τον μάστορά μου [Γ. Καραμπεσίνης]
EXTD=
EXTT0=
EXTT1=
EXTT2=
EXTT3=
EXTT4=
EXTT5=
EXTT6=
EXTT7=
EXTT8=
EXTT9=
EXTT10=
EXTT11=
EXTT12=
EXTT13=
EXTT14=
EXTT15=
EXTT16=
EXTT17=
EXTT18=
EXTT19=
PLAYORDER=
